<svg width="207" height="102" viewBox="0 0 207 102" fill="none" xmlns="http://www.w3.org/2000/svg">
<path d="M2 100C21.7604 72.8109 40.853 45.4046 61.1262 18.383C64.7281 13.5821 67.4576 8.31827 72.7325 4.25841C79.1868 -0.709252 73.4597 17.4116 72.623 23.9528C71.0838 35.9848 69.9904 46.7842 69.5024 58.7911C69.2702 64.5051 68.0265 73.4619 71.1996 79.3227C71.9053 80.6263 73.4087 80.7233 74.3749 79.3955C79.6647 72.1261 80.8094 62.3455 83.0248 54.6046C83.9516 51.3665 84.6883 48.1028 85.7621 44.8849C86.0959 43.8846 86.3856 41.1201 87.2403 41.9726C88.5998 43.3286 87.6595 45.2217 87.733 46.8507C88.1564 56.2281 87.6109 59.7917 88.6089 69.2753C88.8988 72.0291 89.2465 74.7919 90.0324 77.5025C90.4213 78.8443 90.1826 80.8924 92.1127 81.3613C93.737 81.756 94.9151 79.9015 95.726 78.8859C100.529 72.8692 106.776 59.0532 109.194 53.8766C113.31 45.0608 116.756 36.1102 120.909 27.3019C121.409 26.2419 121.262 23.731 122.771 24.2076C124.488 24.75 123.052 26.7299 123.099 27.9936C123.198 30.6139 123.193 33.2356 123.209 35.8568C123.211 36.2614 123.206 55.5991 123.209 56.3156C123.216 58.6819 123.217 61.0483 123.263 63.4143C123.295 65.0036 122.367 69.2131 124.139 68.1468C128.497 65.5251 129.867 54.9593 130.545 52.02C131.887 46.2016 132.503 28.5602 133.008 34.437C133.257 37.3276 131.243 63.045 135.253 63.3051C138.363 63.5069 137.197 59.3264 137.552 57.2621C138.21 53.4449 137.995 41.9409 138.647 45.7586C139.05 48.1142 138.996 63.7608 143.355 64.3244C146.173 64.6887 145.685 54.0571 145.929 53.0029C146.237 51.6679 146.464 55.6824 146.859 57.0073C148.502 62.518 150.797 68.1396 153.976 73.3525C154.694 74.5293 156.856 77.0494 158.028 76.0464C163.469 71.3873 162.845 60.3666 162.845 55.5147C162.845 45.2464 161.518 34.9169 159.944 24.7173C158.739 16.9113 156.798 -1.92461 147.297 2.72945C143.297 4.68876 140.661 7.70415 138.155 10.5562C128.75 21.256 124.766 30.3107 120.855 42.5914C116.11 57.4907 114.194 73.1917 114.997 88.4236C115.166 91.6415 114.264 95.4511 117.296 97.9614C117.708 98.3026 118.485 97.4359 118.665 97.0149C120.427 92.8878 120.234 84.1476 120.198 81.1793C119.921 58.7257 119.086 32.7189 104.376 11.976C103.616 10.904 101.423 8.58718 100.434 9.57334C95.7782 14.2174 96.046 25.5524 95.8355 30.2506C95.2476 43.3674 96.1235 57.7991 117.515 62.7955C123.713 64.2432 134.273 65.5955 141.001 64.5428C142.912 64.2438 136.571 62.3837 136.129 62.2858C130.777 61.0996 147.405 61.9994 153.046 61.9582C161.891 61.8935 170.766 61.3393 179.598 61.3393C182.872 61.3393 186.495 55.689 187.755 57.699C189.657 60.7345 188.248 56.6116 188.248 55.0051C188.248 54.7624 188.248 54.0343 188.248 54.277C188.248 54.7867 188.236 55.2964 188.248 55.806C188.314 58.7334 188.166 61.8284 189.288 64.6885C190.852 68.6761 195.281 65.0718 197.007 63.4143C198.994 61.5059 201.852 61.9946 205 61.9946" stroke="black" stroke-width="3" stroke-linecap="round"/>
</svg>

